OpenSim_Sub08_CSBaseline_LCS.mot
version=1
nRows=33
nColumns=11
inDegrees=no
endheader
time	Bot_Shank	2nd_Bot_Shank	2nd_Top_Shank	Top_Shank	Bot_Thigh	Med_Thigh	Top_Thigh	BNOx	BNOy	BNOZ
13.65000000	8528.25067007	8903.49826317	9362.17681810	9022.17809746	9735.20188143	10673.25992354	11228.46103440	175.71094608	-77.21224843	-140.19482904
13.66000000	8523	8901	9364	9015	9741	10669	11231	174.88000000	-77.44000000	-163.38000000
13.67000000	8515.81099944	8897.67157683	9366.31858409	9007.45898722	9745.75144707	10662.46438854	11234.61980209	173.97013534	-77.64438912	-176.09142164
13.68000000	8507.26746434	8893.47762468	9368.63753788	8999.39942055	9749.85329684	10654.19816844	11238.52802426	172.98075091	-77.81266024	-179.58813307
13.69000000	8498.12663694	8888.40562981	9370.35512116	8990.65852052	9753.79996432	10644.93291318	11241.73667002	171.91415345	-77.92992148	-175.84708275
13.70000000	8489.14575950	8882.44307850	9370.86959375	8981.07350768	9758.08586449	10635.40019627	11243.25774289	170.77264971	-77.98128095	-166.84521915
13.71000000	8481.08207427	8875.57745702	9369.57921545	8970.48160256	9763.20541236	10626.33159117	11242.10324639	169.55854641	-77.95184677	-154.55949072
13.72000000	8474.69282350	8867.79625165	9365.88224608	8958.72002572	9769.65302291	10618.45867139	11237.28518403	168.27415031	-77.82672704	-140.96684592
13.73000000	8470.73501646	8859.08701769	9359.17721203	8945.62618652	9777.92296169	10612.51283672	11227.81596472	166.92176959	-77.59103290	-128.04385915
13.74000000	8469.65648511	8849.52890112	9349.21641667	8931.28809081	9788.31116247	10608.99503240	11213.24595811	165.50562435	-77.23388353	-117.27073681
13.75000000	8470.98638311	8839.47319725	9336.80336342	8916.53835767	9800.52424317	10607.72143907	11194.72401100	164.03561566	-76.75630745	-108.65279525
13.76000000	8474.08401463	8829.32151759	9322.93590640	8902.34727371	9814.15986629	10608.38163501	11173.69450403	162.52269494	-76.16153504	-101.92266634
13.77000000	8478.30868388	8819.47547365	9308.61189977	8889.68512553	9828.81569433	10610.66519845	11151.60181782	160.97781358	-75.45279669	-96.81298196
13.78000000	8483.01969503	8810.33667696	9294.82919765	8879.52219974	9844.08938979	10614.26170766	11129.89033300	159.41192301	-74.63332278	-93.05637399
13.79000000	8487.57635227	8802.30673901	9282.58565418	8872.82878297	9859.57861515	10618.86074087	11110.00443019	157.83597461	-73.70634369	-90.38547431
13.80000000	8491.33795978	8795.78727134	9272.87912350	8870.57516180	9874.88103292	10624.15187635	11093.38849002	156.26091981	-72.67508981	-88.53291480
13.81000000	8493.66382175	8791.17988546	9266.70745973	8873.73162286	9889.59430560	10629.82469234	11081.48689313	154.69771001	-71.54279152	-87.23132735
13.82000000	8493.91346003	8788.88607628	9265.06818844	8883.26804558	9903.31616757	10635.56879163	11075.74350948	153.15729515	-70.31268328	-86.21337265
13.83000000	8491.73523074	8789.15262021	9268.52281401	8899.61398276	9915.73976535	10641.10633110	11076.92458371	151.64868151	-68.99341408	-85.24995702
13.84000000	8487.63572179	8791.76656863	9276.33726316	8921.59348018	9926.84174952	10646.25619766	11083.78288885	150.17510006	-67.60972141	-84.22562838
13.85000000	8482.28019495	8796.42997685	9287.53793026	8947.73375007	9936.65118624	10650.85516215	11094.69893807	148.73871399	-66.18931726	-83.04594525
13.86000000	8476.33391199	8802.84490017	9301.15120969	8976.56200466	9945.19714163	10654.73999540	11108.05324450	147.34168648	-64.75991366	-81.61646614
13.87000000	8470.46213466	8810.71339388	9316.20349581	9006.60545618	9952.50868184	10657.74746823	11122.22632128	145.98618074	-63.34922261	-79.84274958
13.88000000	8465.33012472	8819.73751328	9331.72118299	9036.39131686	9958.61487301	10659.71435146	11135.59868157	144.67435996	-61.98495612	-77.63035409
13.89000000	8461.60314393	8829.61931368	9346.73066561	9064.44679893	9963.54478128	10660.47741593	11146.55083851	143.40838732	-60.69482620	-74.88483817
13.90000000	8459.94627699	8840.06084355	9360.25851076	9089.29942288	9967.32744403	10659.87350075	11153.46370405	142.19043223	-59.50654756	-71.51183491
13.91000000	8460.78963375	8850.75509315	9371.56050317	9109.88575409	9969.95375173	10657.83006255	11155.24741666	141.03088759	-58.45143618	-67.51591197
13.92000000	8463.86512830	8861.36813746	9380.57351660	9126.35777924	9971.30124637	10654.54381555	11152.38463927	139.96458140	-57.57150865	-63.19560776
13.93000000	8468.77558910	8871.56107527	9387.36034764	9139.09219770	9971.22651355	10650.26125560	11145.64877042	139.03085933	-56.91075995	-58.90381134
13.94000000	8475.12384458	8880.99500534	9391.98379290	9148.46570886	9969.58613889	10645.22887850	11135.81320865	138.26906706	-56.51318505	-54.99341176
13.95000000	8482.51272320	8889.33102645	9394.50664900	9154.85501208	9966.23670801	10639.69318009	11123.65135248	137.71855025	-56.42277894	-51.81729809
13.96000000	8490.54505340	8896.23023737	9394.99171254	9158.63680674	9961.03480651	10633.90065619	11109.93660045	137.41865457	-56.68353657	-49.72835939
13.97000000	8498.82366363	8901.35373688	9393.50178014	9160.18779221	9953.83702001	10628.09780262	11095.44235108	137.40872569	-57.33945294	-49.07948471
